<svg id="Layer_1" data-name="Layer 1" xmlns="http://www.w3.org/2000/svg" xmlns:xlink="http://www.w3.org/1999/xlink" viewBox="0 0 1036 1036"><defs><style>.cls-1{fill:none;}.cls-2{fill:#d2f1e1;}.cls-3{clip-path:url(#clip-path);}</style><clipPath id="clip-path" transform="translate(-22 -22)"><rect class="cls-1" x="251.82" y="773.5" width="582" height="202"/></clipPath></defs><path class="cls-2" d="M540,1058A518.14,518.14,0,0,1,338.37,62.71a518.13,518.13,0,0,1,403.26,954.58A514.78,514.78,0,0,1,540,1058ZM540,35C261.54,35,35,261.54,35,540s226.54,505,505,505,505-226.54,505-505S818.46,35,540,35Z" transform="translate(-22 -22)"/><path class="cls-2" d="M540,902.39a361.82,361.82,0,1,1,141.26-28.52A360.57,360.57,0,0,1,540,902.39Zm0-712.78c-192.93,0-349.89,157-349.89,349.89S347.07,889.39,540,889.39s349.9-157,349.9-349.89S732.93,189.61,540,189.61Z" transform="translate(-22 -22)"/><path class="cls-2" d="M190,377.62q-9.64,2.43-21.85-4l-5.74-3,7.88-14.93,6.9,3.64q9.75,5.16,14.08-3c1.41-2.68,1.7-5.13.85-7.35s-3-4.27-6.58-6.14a24.1,24.1,0,0,0-12.64-3q-6.33.33-17.17,4.52-13.77,5.22-22.77,5.41a35.88,35.88,0,0,1-17.77-4.42Q103.26,339,99.91,329.51t2.71-21q6-11.34,15.59-13.71T140,298.92l4.16,2.2-7.88,14.93-5.17-2.73q-5.17-2.73-8.6-2c-2.29.51-4.11,2-5.47,4.64q-4.17,7.89,5.44,13a21.52,21.52,0,0,0,11.75,2.44q6.28-.45,17.13-4.63,13.85-5.36,22.85-5.38a39.27,39.27,0,0,1,18.48,5q12.35,6.51,15.73,16.1t-2.76,21.22Q199.61,375.18,190,377.62Z" transform="translate(-22 -22)"/><path class="cls-2" d="M139.31,250l16.44-19.48,69.48,43.76.21-.24-54.82-61.14,16.43-19.48,86.85,73.29L263,279.63l-65.75-55.49-.21.25,57.37,65.41-9.63,11.42-74.13-45.57-.2.25,65.75,55.49L226.16,323.3Z" transform="translate(-22 -22)"/><path class="cls-2" d="M232.13,154.34l19.25-14.65,83.55,79.22-14.21,10.81-16.25-16,.19.26-16.14,12.29,10.88,19.66-13.17,10ZM293.65,203,253.3,163.12l-.26.2,27.82,49.41Z" transform="translate(-22 -22)"/><path class="cls-2" d="M300.84,107.6,324.62,96Q337,90,345.52,93t14.34,15l3.06,6.28q7.75,15.9-.69,25.26l.14.29a13.93,13.93,0,0,1,11.73,3.13q5,4.21,9.45,13.27l8.75,18A76.5,76.5,0,0,0,396,181a19.64,19.64,0,0,0,4.06,4.62l-16.34,8a26.08,26.08,0,0,1-3.45-4.1,77.11,77.11,0,0,1-4.13-7.73l-9.11-18.68q-3.4-7-7-8.67t-9.15,1l-5.55,2.7,21.34,43.78-16.05,7.82Zm43.22,33.11q4.81-2.36,6-6t-1.65-9.49l-3.84-7.88q-2.7-5.53-5.88-7.06t-7.41.54l-7.3,3.56,14.23,29.18Z" transform="translate(-22 -22)"/><path class="cls-2" d="M407.32,81.43l-18,4.85L385.08,70.6l53.3-14.33L442.6,72l-18,4.84,25.29,94.06-17.24,4.64Z" transform="translate(-22 -22)"/><path class="cls-2" d="M528.54,45.85l18,.64,8.59,88.5h.32l14.78-87.68,16.38.57-21.18,113L541.75,160Z" transform="translate(-22 -22)"/><path class="cls-2" d="M625.46,53.88,643,57.27,621.38,168.83l-17.53-3.4Z" transform="translate(-22 -22)"/><path class="cls-2" d="M685.51,67.93l16.82,6-32.71,91.75,27.67,9.87-5.45,15.29L647.35,175Z" transform="translate(-22 -22)"/><path class="cls-2" d="M766.08,100.86l15.5,8.87-48.39,84.53,25.5,14.6-8.06,14.08-41-23.46Z" transform="translate(-22 -22)"/><path class="cls-2" d="M851,156.84l18.38,15.72L809.57,271,796,259.35l12.19-19.26-.21.25-15.42-13.19-16.92,14.79-12.58-10.76Zm-34.57,70.4,30.46-47.85-.25-.21L804.19,216.8Z" transform="translate(-22 -22)"/><path class="cls-2" d="M829.74,285.16q1.56-9.93,12.37-18.5l46.81-37.11q10.82-8.58,20.84-7.82t18.09,10.93q8.07,10.18,6.51,20.11T922,271.27l-7.63,6.05-10.49-13.23,8.52-6.75q8.77-7,3-14.21t-14.52-.3l-48.73,38.63q-8.64,6.85-2.9,14.1t14.4.4l17.43-13.82-5.55-7,12.72-10.09,16,20.23-29.14,23.09q-10.8,8.58-20.83,7.82t-18.09-10.93Q828.19,295.09,829.74,285.16Z" transform="translate(-22 -22)"/><path class="cls-2" d="M966.31,290.9,988.89,334l-14.38,7.53-14.3-27.32L933.6,328.18,945,349.89l-14.38,7.53-11.37-21.71L888.3,351.89l14.31,27.33-14.38,7.53L865.64,343.6Z" transform="translate(-22 -22)"/><path class="cls-2" d="M312.58,849.55,324.46,858l-55.14,77.95-11.89-8.4Z" transform="translate(-22 -22)"/><path class="cls-2" d="M333.88,864.61l34.48,19.67-6.76,11.85-21.83-12.46-12.51,21.92,17.36,9.9-6.76,11.85-17.36-9.9L306,942.91l21.84,12.46-6.76,11.85-34.48-19.67Z" transform="translate(-22 -22)"/><path class="cls-2" d="M376.75,888.2l36.7,15.11-5.19,12.61L385,906.35l-9.6,23.34,18.47,7.6-5.19,12.62-18.47-7.61-11.17,27.12L382.3,979l-5.19,12.62L340.4,976.5Z" transform="translate(-22 -22)"/><path class="cls-2" d="M422.3,906.13l38.34,10.28-3.53,13.18-24.28-6.51-6.54,24.37,19.3,5.18-3.53,13.17-19.3-5.17L415.16,989l24.29,6.51-3.53,13.17-38.35-10.28Z" transform="translate(-22 -22)"/><path class="cls-2" d="M487.06,1012q-4.95-6.6-4.05-18.16l.41-5.44,13.72,1.05-.5,6.53q-.7,9.25,6.82,9.82a7,7,0,0,0,5.77-1.81q2.08-2.1,2.48-7.13a20.72,20.72,0,0,0-1.84-10.74q-2.28-4.77-8.92-11.7-8.35-8.85-11.4-15.72a31,31,0,0,1-2.43-15.17q.87-11.28,6.88-17t16.57-5q10.43.8,15.3,7.39t4,18.16l-.3,3.95L515.83,950l.37-4.89c.25-3.27-.18-5.69-1.3-7.29a6.61,6.61,0,0,0-5.24-2.65c-4.83-.37-7.49,2.48-8,8.55a18.52,18.52,0,0,0,2,9.87q2.37,4.7,9,11.63,8.48,8.87,11.4,15.79a33.9,33.9,0,0,1,2.23,15.9q-.9,11.7-7,17.53t-16.77,5Q492,1018.62,487.06,1012Z" transform="translate(-22 -22)"/><path class="cls-2" d="M541.06,924.08l14.55-.31,2,95.47-14.55.3Z" transform="translate(-22 -22)"/><path class="cls-2" d="M567,923.53l39.43-4.64L608,932.44l-25,2.94,3,25.06,19.84-2.33,1.6,13.54L587.56,974l3.42,29.13,25-2.94,1.6,13.55-39.43,4.64Z" transform="translate(-22 -22)"/><path class="cls-2" d="M640.78,1004.22q-6.79-4.69-9.62-15.93l-1.34-5.3,13.34-3.36,1.61,6.34q2.26,9,9.58,7.15a7,7,0,0,0,4.9-3.56q1.31-2.65.08-7.54a20.76,20.76,0,0,0-5.16-9.61q-3.69-3.78-12.18-8.25-10.72-5.73-15.81-11.27a30.82,30.82,0,0,1-7.12-13.61q-2.77-11,1.09-18.35t14.13-10q10.14-2.57,16.86,2.14t9.55,15.95l1,3.84-13.34,3.37-1.21-4.76c-.8-3.18-2-5.34-3.55-6.5a6.63,6.63,0,0,0-5.81-.85q-7.05,1.79-4.82,10.64a18.45,18.45,0,0,0,5,8.73q3.72,3.71,12.23,8.17Q661,957.39,666,963a33.82,33.82,0,0,1,7.18,14.36q2.88,11.39-1,18.84t-14.31,10.08Q647.55,1008.91,640.78,1004.22Z" transform="translate(-22 -22)"/><path class="cls-2" d="M702.21,986.5q-7.47-3.69-11.8-14.45l-18.73-46.57q-4.32-10.76-1.48-18.59t12.66-11.79q9.82-3.95,17.29-.26T712,909.28l3.06,7.6L702.24,922l-3.41-8.48q-3.51-8.73-10.51-5.92t-3.49,11.55l19.49,48.47q3.46,8.61,10.46,5.8T718.32,962l-7-17.34-6.75,2.71-5.09-12.65L719,926.88l11.65,29q4.32,10.75,1.49,18.59T719.5,986.23Q709.68,990.18,702.21,986.5Z" transform="translate(-22 -22)"/><path class="cls-2" d="M760.09,961q-7.79-2.72-13.51-12.8l-2.7-4.74,12-6.8,3.23,5.69q4.59,8.07,11.14,4.34a7,7,0,0,0,3.78-4.74c.37-1.94-.27-4.37-1.94-7.29a20.68,20.68,0,0,0-7.52-7.89Q760,924.09,750.6,922q-11.86-2.67-18.24-6.66a31,31,0,0,1-10.49-11.22q-5.6-9.84-3.83-18t11-13.37q9.07-5.16,16.81-2.42t13.46,12.83l2,3.44-12,6.8-2.43-4.27c-1.62-2.85-3.33-4.62-5.15-5.31a6.66,6.66,0,0,0-5.83.72q-6.33,3.6-1.81,11.55a18.5,18.5,0,0,0,7.15,7.08q4.57,2.56,14,4.61,12,2.61,18.27,6.72a33.84,33.84,0,0,1,10.75,11.94q5.79,10.2,4,18.43t-11.11,13.53Q767.87,963.69,760.09,961Z" transform="translate(-22 -22)"/><path class="cls-2" d="M773.27,862.17l-12.16,9.16-8.21-10.89,35.93-27.08L797,844.25l-12.15,9.16,49.26,65.37-11.63,8.76Z" transform="translate(-22 -22)"/><path class="cls-2" d="M545,804.5" transform="translate(-22 -22)"/><path class="cls-2" d="M212.49,456.32s48.65-32.43,78.77,11.59C291.26,467.91,251.87,505,212.49,456.32Z" transform="translate(-22 -22)"/><path class="cls-2" d="M205.54,499s43-28.68,69.63,10.24C275.17,509.25,240.36,542,205.54,499Z" transform="translate(-22 -22)"/><path class="cls-2" d="M217.56,600.31s1.73-66.18,62.11-65.33C279.67,535,288.27,595.61,217.56,600.31Z" transform="translate(-22 -22)"/><path class="cls-2" d="M265.07,345.19s66.07,4.18,63,64.48C328.05,409.67,267.15,416,265.07,345.19Z" transform="translate(-22 -22)"/><path class="cls-2" d="M322,292.55s39.61,28.33,14.21,64.77C336.16,357.32,295.67,337.58,322,292.55Z" transform="translate(-22 -22)"/><path class="cls-2" d="M454.86,351.93s-34.33,27.84-60.1-3.17C394.76,348.76,421.79,318.09,454.86,351.93Z" transform="translate(-22 -22)"/><path class="cls-2" d="M428.56,385.74s2.61,56.15-48.57,59.15C380,444.89,369,394.08,428.56,385.74Z" transform="translate(-22 -22)"/><path class="cls-2" d="M483.57,353.36s8,55.63-42.68,63.52C440.89,416.88,425.06,367.36,483.57,353.36Z" transform="translate(-22 -22)"/><path class="cls-2" d="M485.22,291.81s-65.37-8.29-58.52-68C426.7,223.8,487.59,221.31,485.22,291.81Z" transform="translate(-22 -22)"/><path class="cls-2" d="M560.51,327.94s-30.2-56.43,20.93-84.6C581.44,243.34,617.67,290.16,560.51,327.94Z" transform="translate(-22 -22)"/><path class="cls-2" d="M588.47,381.72s-29-35.06,2.63-61.93C591.1,319.79,623,347.31,588.47,381.72Z" transform="translate(-22 -22)"/><path class="cls-2" d="M680.28,296.74s.14-45.52,41.66-45.89C721.94,250.85,728.82,292.39,680.28,296.74Z" transform="translate(-22 -22)"/><path class="cls-2" d="M684.74,375s36.31-27.45,61.75,5.38C746.49,380.39,717.59,411,684.74,375Z" transform="translate(-22 -22)"/><path class="cls-2" d="M636.54,416.63s54-46.2,96.72,2.54C733.26,419.17,691.12,469.62,636.54,416.63Z" transform="translate(-22 -22)"/><path class="cls-2" d="M758.82,388.16s29.52-41.52,67.72-15.05C826.54,373.11,806,415.53,758.82,388.16Z" transform="translate(-22 -22)"/><path class="cls-2" d="M362.18,561.71s6.46,38.28-28.38,44.6C333.8,606.31,322,572.39,362.18,561.71Z" transform="translate(-22 -22)"/><path class="cls-2" d="M680.14,568s50.29-3.2,53.76,42.63C733.9,610.58,688.53,621.23,680.14,568Z" transform="translate(-22 -22)"/><path class="cls-2" d="M811.22,516s33.62-30.66,61.95-.33C873.17,515.69,847.23,548.82,811.22,516Z" transform="translate(-22 -22)"/><path class="cls-2" d="M795.36,498.87s3.24-66.38,63.83-64.15C859.19,434.72,866.44,495.76,795.36,498.87Z" transform="translate(-22 -22)"/><path class="cls-2" d="M777.89,542.24s62.47-30.13,90.64,26.52C868.53,568.76,816.18,605.85,777.89,542.24Z" transform="translate(-22 -22)"/><path class="cls-2" d="M384.35,524.3s59.72,30.08,32.94,84.88C417.29,609.18,358.19,590.93,384.35,524.3Z" transform="translate(-22 -22)"/><path class="cls-2" d="M647.9,223.86S699.16,262,665,309.13C665,309.13,612.36,282.27,647.9,223.86Z" transform="translate(-22 -22)"/><path class="cls-2" d="M735.73,321.78s16.78-31,45.25-16C781,305.74,770.44,336.6,735.73,321.78Z" transform="translate(-22 -22)"/><path class="cls-2" d="M645.72,606.8s-9.94-33.83,20.81-43.27C666.53,563.53,680.8,592.86,645.72,606.8Z" transform="translate(-22 -22)"/><path class="cls-2" d="M724.13,325.13a243.87,243.87,0,0,1-19.51,19.95Z" transform="translate(-22 -22)"/><path class="cls-2" d="M523.6,345.15c1.06,0,1.64,0,1.64,0s-.32.54-1,1.56C524,346.17,523.8,345.66,523.6,345.15Z" transform="translate(-22 -22)"/><path class="cls-2" d="M722.3,484.08s0,0,0,0l-.48-.18A3.4,3.4,0,0,0,722.3,484.08Z" transform="translate(-22 -22)"/><path class="cls-2" d="M722.3,484.08A365,365,0,0,0,777.76,498l-4.64,18.54s-158.5-16.89-235.18-144.08C486.41,454.24,410.8,490,360.41,505.32c.07,1.37,1.62,51.36-73.79,103.91l-16.21-23.17s37.06-15.2,62.55-73.63a219.88,219.88,0,0,1-25.49,4.13l-4.63-23.17A346.91,346.91,0,0,0,351,480.28c-6.76-5.49-40.24-30.91-120-65.66l9.27-23.16s49.92,21.61,93.27,47.74c6.69-10.05,65-102.44-.6-165.89l20.85-16.22s80.43,94.22-5.91,191.1A247.55,247.55,0,0,1,377,470C470,428.5,517.16,358,524.29,346.68c.63-1,1-1.56,1-1.56s-.58,0-1.64,0c-14.09.09-114.36-2.81-146.63-99.64l18.54-11.59s41.58,86,118.1,85.88c-11.12-32.94-17.26-71.3-16.17-116H516s.37,13.43,4.13,34.65c41.19-18.62,30.62-34.65,30.62-34.65h30.12c-4.63,39.38-54.65,62.55-54.65,62.55,9.15,35.44,26.53,80.92,59.4,122.64a368,368,0,0,0,61.11-31.69s-65.86-33-38.06-146.55l23.17,4.63s-26.76,80.37,37.6,125.91c24.74-19.13,48.83-43.95,64.33-74.94l18.53,13.9s-5.42,18.69-28,44.69l-.18.18-19.51,19.95,0,0C682.2,365.6,649.79,388.33,603.2,409.3c24,25.18,54.55,48,93.54,64.93,0,0,71.75-66.56,145.88-78.14l9.27,18.53s-43.78,6.88-129.59,69.46a3.4,3.4,0,0,1-.51-.16l.48.18S722.3,484.1,722.3,484.08Z" transform="translate(-22 -22)"/><path class="cls-2" d="M814.82,349.76c-57.91,23.16-110.25-4.64-110.25-4.64l0,0,19.51-19.95.18-.18c46.17,19.18,76.61,4,76.61,4Z" transform="translate(-22 -22)"/><path class="cls-2" d="M722.3,484.08s0,0,0,0l-.48-.18A3.4,3.4,0,0,0,722.3,484.08Z" transform="translate(-22 -22)"/><path class="cls-2" d="M800.92,600l-23.16,16.22C738.37,542,647.19,553.62,647.19,553.62c-10.84,15.8-19.92,34.73-22.33,55.61H451.11c-13.9-71.82-64.87-101.94-64.87-101.94L411.72,498c32.65,21.76,50.11,56.28,59,81.09H607.48A190.63,190.63,0,0,1,666.56,498l27.8,7a195.61,195.61,0,0,0-22.43,19.33C767.66,532,800.92,600,800.92,600Z" transform="translate(-22 -22)"/><path class="cls-2" d="M635,771.39H614.15c-25.41-55.32-25.73-102.93-22.79-129.73H483.17c2.94,26.8,2.62,74.41-22.8,129.73H439.52s46.34-108.88,11.59-152.9H623.42C588.67,662.51,635,771.39,635,771.39Z" transform="translate(-22 -22)"/><circle class="cls-2" cx="518.3" cy="467.92" r="31.28"/><rect class="cls-2" x="484.71" y="647.46" width="62.55" height="101.93"/><g class="cls-3"><circle class="cls-2" cx="516.82" cy="515.5" r="334"/></g></svg>